<svg width="311" height="172" viewBox="0 0 311 172" fill="none" xmlns="http://www.w3.org/2000/svg">
<path d="M55 20H256" stroke="#C6D2E8" stroke-width="0.6" stroke-dasharray="3 3"/>
<path d="M55 32H256" stroke="#C6D2E8" stroke-width="0.6" stroke-dasharray="3 3"/>
<path d="M55 44H256" stroke="#C6D2E8" stroke-width="0.6" stroke-dasharray="3 3"/>
<path d="M55 55H256" stroke="#C6D2E8" stroke-width="0.6" stroke-dasharray="3 3"/>
<path d="M55 68H256" stroke="#C6D2E8" stroke-width="0.6" stroke-dasharray="3 3"/>
<path d="M55 79H256" stroke="#C6D2E8" stroke-width="0.6" stroke-dasharray="3 3"/>
<path d="M55 92H256" stroke="#C6D2E8" stroke-width="0.6" stroke-dasharray="3 3"/>
<path d="M55 103H256" stroke="#C6D2E8" stroke-width="0.6" stroke-dasharray="3 3"/>
<path d="M55 116H256" stroke="#C6D2E8" stroke-width="0.6" stroke-dasharray="3 3"/>
<path d="M55 127H256" stroke="#C6D2E8" stroke-width="0.6" stroke-dasharray="3 3"/>
<path d="M55 140H256" stroke="#C6D2E8" stroke-width="0.6" stroke-dasharray="3 3"/>
<path d="M55 152H256" stroke="#C6D2E8"/>
<path d="M79 30C79 24.4772 83.4772 20 89 20H141C146.523 20 151 24.4772 151 30V152H79V30Z" fill="#D1E9FE"/>
<path fill-rule="evenodd" clip-rule="evenodd" d="M176.363 20C173.602 20 171.363 22.2386 171.363 25V45.5H167.005C163.98 45.5 162.857 49.4705 165.434 51.0554L196.292 70.0335C197.256 70.6263 198.471 70.6263 199.435 70.0335L230.294 51.0554C232.871 49.4705 231.748 45.5 228.722 45.5H223.363V25C223.363 22.2386 221.125 20 218.363 20H176.363Z" fill="#CCFF00"/>
<path d="M183.743 34.92C185.213 33.51 187.093 32.31 187.093 31.14C187.093 30.39 186.623 29.86 185.953 29.86C185.413 29.86 184.873 30.24 184.633 30.78L183.523 30.28C183.943 29.33 184.953 28.67 185.953 28.67C187.383 28.67 188.383 29.69 188.383 31.14C188.383 32.66 186.903 33.86 185.623 34.92H188.493V36.04H183.843L183.743 34.92ZM193.392 32.26C194.052 32.64 194.502 33.36 194.502 33.98C194.502 35.22 193.442 36.1 191.942 36.1C190.442 36.1 189.382 35.18 189.382 33.87H190.672C190.672 34.51 191.202 34.96 191.942 34.96C192.712 34.96 193.262 34.51 193.262 33.87C193.262 33.24 192.722 32.79 191.962 32.79H191.452V31.74H191.972C192.662 31.74 193.152 31.34 193.152 30.76C193.152 30.2 192.682 29.81 192.012 29.81C191.362 29.81 190.902 30.21 190.902 30.77H189.612C189.612 29.53 190.602 28.67 192.012 28.67C193.402 28.67 194.382 29.49 194.382 30.66C194.382 31.23 193.992 31.89 193.392 32.26Z" fill="#232428"/>
<path d="M195.82 28.58H200.12V32.95H195.82V28.58ZM196.83 36.7V33.76H198.17V35.64H202.97V36.7H196.83ZM197.13 31.89H198.81V29.63H197.13V31.89ZM201.32 34.41V27.85H202.65V30.43H203.83V31.53H202.65V34.41H201.32ZM210.55 27.85H211.88V34.67H210.55V33.97H208.87V33.07H210.55V27.85ZM204.26 31.82C205.9 31.81 208.09 31.79 209.98 31.55L210.06 32.49C209.37 32.61 208.66 32.69 207.95 32.75V34.44H206.7V35.64H212.09V36.7H205.37V34.02H206.62V32.82C205.84 32.86 205.09 32.87 204.42 32.87L204.26 31.82ZM204.9 29.76C204.9 28.81 205.83 28.15 207.15 28.15C208.47 28.15 209.39 28.81 209.39 29.76C209.39 30.73 208.47 31.37 207.15 31.37C205.83 31.37 204.9 30.73 204.9 29.76ZM206.17 29.76C206.17 30.19 206.57 30.4 207.15 30.4C207.74 30.4 208.13 30.19 208.13 29.76C208.13 29.33 207.74 29.12 207.15 29.12C206.57 29.12 206.17 29.33 206.17 29.76Z" fill="#232428"/>
<path d="M194.42 44.68H195.76V42.86H197.09V47.42H195.76V45.73H194.42V44.68ZM189.46 46.59C190.86 46.14 191.51 45.15 191.57 44.23H189.81V43.17H194.65V44.23H192.92C192.98 45.12 193.58 46.02 194.93 46.4L194.31 47.44C193.32 47.15 192.64 46.57 192.25 45.84C191.85 46.66 191.14 47.33 190.09 47.62L189.46 46.59ZM191.13 48.79V47.77H197.09V50.22H192.46V50.73H197.34V51.76H191.14V49.26H195.77V48.79H191.13ZM204.05 42.85H205.38V44.78H206.57V45.87H205.38V47.86H204.05V42.85ZM198.19 47.03C200.17 46.54 201.24 45.57 201.44 44.41H198.63V43.35H202.88C202.88 45.77 201.39 47.39 198.71 48.08L198.19 47.03ZM199.54 51.75V48.21H205.38V51.75H199.54ZM200.85 50.71H204.08V49.26H200.85V50.71Z" fill="#232428"/>
<path d="M161 84C161 78.4772 165.477 74 171 74H223C228.523 74 233 78.4772 233 84V152H161V84Z" fill="url(#paint0_linear_55_423)"/>
<path d="M100.114 86.77L99.0544 86.64L99.3044 82.75H103.194V83.68H100.324L100.204 85.46C100.534 85.31 100.904 85.22 101.234 85.22C102.734 85.22 103.794 86.23 103.794 87.66C103.794 89.11 102.734 90.13 101.234 90.13C100.054 90.13 99.0344 89.34 98.7744 88.22L99.8044 87.98C99.9544 88.65 100.544 89.13 101.234 89.13C102.114 89.13 102.734 88.52 102.734 87.66C102.734 86.82 102.114 86.22 101.234 86.22C100.864 86.22 100.404 86.45 100.114 86.77ZM107.51 89.16C108.51 89.16 109.18 88.04 109.18 86.39C109.18 84.73 108.51 83.61 107.51 83.61C106.51 83.61 105.83 84.73 105.83 86.39C105.83 88.04 106.51 89.16 107.51 89.16ZM104.77 86.39C104.77 84.21 105.9 82.68 107.51 82.68C109.11 82.68 110.24 84.21 110.24 86.39C110.24 88.56 109.11 90.1 107.51 90.1C105.9 90.1 104.77 88.56 104.77 86.39Z" fill="#788FBD"/>
<path d="M111.91 82.66H116.09V86.9H111.91V82.66ZM112.91 90.63V87.77H114.01V89.75H118.92V90.63H112.91ZM112.99 86.01H115.01V83.53H112.99V86.01ZM117.47 88.4V81.9H118.57V84.52H119.8V85.43H118.57V88.4H117.47ZM126.64 81.9H127.74V88.66H126.64V87.87H124.92V87.11H126.64V81.9ZM120.29 85.91C121.92 85.9 124.1 85.88 125.99 85.65L126.05 86.43C125.33 86.55 124.57 86.63 123.83 86.68V88.39H122.73V86.74C121.91 86.78 121.12 86.79 120.43 86.79L120.29 85.91ZM120.95 83.8C120.95 82.86 121.86 82.23 123.16 82.23C124.47 82.23 125.37 82.86 125.37 83.8C125.37 84.76 124.47 85.38 123.16 85.38C121.86 85.38 120.95 84.76 120.95 83.8ZM121.46 90.63V88.01H122.56V89.75H127.95V90.63H121.46ZM122 83.8C122 84.29 122.48 84.57 123.16 84.57C123.86 84.57 124.32 84.29 124.32 83.8C124.32 83.31 123.86 83.03 123.16 83.03C122.48 83.03 122 83.31 122 83.8Z" fill="#788FBD"/>
<path d="M183.932 89.1C185.392 87.7 187.382 86.28 187.382 85.05C187.382 84.23 186.862 83.65 186.122 83.65C185.552 83.65 184.982 84.06 184.722 84.65L183.792 84.24C184.192 83.32 185.162 82.68 186.122 82.68C187.492 82.68 188.442 83.66 188.442 85.05C188.442 86.58 186.782 87.94 185.432 89.1H188.562V90.03H184.032L183.932 89.1ZM191.354 90.05H190.194L193.044 83.65L189.704 83.66V82.72H194.104L194.204 83.65L191.354 90.05Z" fill="white"/>
<path d="M195.91 82.66H200.09V86.9H195.91V82.66ZM196.91 90.63V87.77H198.01V89.75H202.92V90.63H196.91ZM196.99 86.01H199.01V83.53H196.99V86.01ZM201.47 88.4V81.9H202.57V84.52H203.8V85.43H202.57V88.4H201.47ZM210.64 81.9H211.74V88.66H210.64V87.87H208.92V87.11H210.64V81.9ZM204.29 85.91C205.92 85.9 208.1 85.88 209.99 85.65L210.05 86.43C209.33 86.55 208.57 86.63 207.83 86.68V88.39H206.73V86.74C205.91 86.78 205.12 86.79 204.43 86.79L204.29 85.91ZM204.95 83.8C204.95 82.86 205.86 82.23 207.16 82.23C208.47 82.23 209.37 82.86 209.37 83.8C209.37 84.76 208.47 85.38 207.16 85.38C205.86 85.38 204.95 84.76 204.95 83.8ZM205.46 90.63V88.01H206.56V89.75H211.95V90.63H205.46ZM206 83.8C206 84.29 206.48 84.57 207.16 84.57C207.86 84.57 208.32 84.29 208.32 83.8C208.32 83.31 207.86 83.03 207.16 83.03C206.48 83.03 206 83.31 206 83.8Z" fill="white"/>
<defs>
<linearGradient id="paint0_linear_55_423" x1="197" y1="74" x2="197" y2="161.032" gradientUnits="userSpaceOnUse">
<stop offset="0.5" stop-color="#0046FF"/>
<stop offset="1" stop-color="#96FFF4"/>
</linearGradient>
</defs>
</svg>
